<svg width="62" height="66" viewBox="0 0 62 66" fill="none" xmlns="http://www.w3.org/2000/svg">
<path d="M31 0.375L0.868774 11.1188L5.40628 50.7938L31 65.625L56.5938 50.7938L61.1313 11.1188L31 0.375ZM54.5688 49.3875L31 63L7.43128 49.3875L3.25002 12.8625L31 3L58.75 12.9L54.5688 49.3875Z" fill="black"/>
<path d="M31 4.875L4.99377 14.25L8.91252 48.4875L31 61.125L53.0875 48.3L57.0063 14.0625L31 4.875ZM41.9875 47.25L38.1438 38.1H23.8563L20.0125 47.25H12.7L31 7.2L49.3 47.1937L41.9875 47.25Z" fill="black"/>
<path d="M25.9562 33H36.0437L31 20.9813L25.9562 33Z" fill="black"/>
</svg>
