<svg width="24" height="24" viewBox="0 0 24 24" fill="none" xmlns="http://www.w3.org/2000/svg">
<path d="M24.129 23.412L23.621 22.928C23.37 22.597 23.103 22.304 22.812 22.037L22.807 22.033C22.5083 21.7617 22.198 21.5037 21.876 21.259C21.618 21.0817 21.2633 20.868 20.812 20.618C20.441 20.451 20.151 20.158 19.994 19.794L19.99 19.784L19.942 19.76C20.154 19.739 20.348 19.7 20.534 19.645L20.511 19.651L21.081 19.494C21.317 19.42 21.59 19.372 21.873 19.361H21.879C22.177 19.349 22.458 19.301 22.726 19.222L22.701 19.228C22.8303 19.196 22.9633 19.1597 23.1 19.119C23.2367 19.0783 23.3537 19.042 23.451 19.01V18.841C23.3543 18.6963 23.2373 18.531 23.1 18.345C22.969 18.167 22.822 18.012 22.657 17.877L22.652 17.873C22.2327 17.5023 21.7983 17.1437 21.349 16.797C20.953 16.488 20.504 16.173 20.038 15.881L19.97 15.841C19.724 15.679 19.442 15.529 19.145 15.406L19.111 15.394C18.8123 15.2727 18.518 15.1397 18.228 14.995C18.131 14.947 18.018 14.905 17.901 14.876L17.89 14.874C17.773 14.85 17.673 14.79 17.6 14.705L17.599 14.704C17.461 14.522 17.34 14.315 17.244 14.095L17.236 14.075C17.1393 13.849 17.0347 13.632 16.922 13.424C16.68 12.956 16.446 12.4803 16.22 11.997C15.994 11.5137 15.777 11.0297 15.569 10.545C15.4243 10.2223 15.2913 9.90001 15.17 9.57801C15.036 9.22401 14.885 8.92101 14.709 8.63601L14.722 8.65901C14.29 7.92301 13.859 7.29501 13.391 6.69801L13.419 6.73601C12.956 6.15201 12.476 5.63001 11.96 5.14601L11.952 5.13901C11.443 4.66101 10.895 4.20501 10.32 3.78301L10.271 3.74801C9.67367 3.31401 9.02033 2.88667 8.311 2.46601C8.026 2.29801 7.695 2.16101 7.346 2.07301L7.32 2.06701L6.207 1.78901L5.578 1.74101C5.36867 1.72501 5.159 1.71701 4.949 1.71701C4.801 1.63901 4.674 1.54601 4.562 1.43801C4.452 1.33301 4.333 1.23401 4.209 1.14301L4.199 1.13601C3.594 0.783007 2.891 0.460007 2.156 0.206007L2.071 0.180007C1.878 0.0670071 1.646 0.00100708 1.399 0.00100708C1.223 0.00100708 1.054 0.0350071 0.9 0.0960071L0.909 0.0930071C0.529 0.244007 0.239 0.551007 0.114 0.933007L0.111 0.943007C0.0380003 1.11501 -0.00399971 1.31401 -0.00399971 1.52401C-0.00399971 1.89201 0.126 2.22901 0.343 2.49201L0.341 2.48901C0.703667 2.97234 0.981667 3.35234 1.175 3.62901C1.31967 3.82301 1.469 4.02467 1.623 4.23401C1.764 4.42201 1.889 4.63701 1.99 4.86401L1.998 4.88501C2.054 5.00401 2.103 5.14601 2.139 5.29201L2.142 5.30801C2.174 5.44534 2.21433 5.59467 2.263 5.75601C2.40767 6.12667 2.54467 6.50667 2.674 6.89601C2.815 7.32101 2.971 7.68101 3.152 8.02401L3.133 7.98401C3.22967 8.16134 3.32667 8.33467 3.424 8.50401C3.52133 8.67334 3.626 8.83867 3.738 9.00001C3.803 9.09801 3.885 9.17901 3.979 9.24201L3.982 9.24401C4.081 9.31601 4.146 9.42901 4.151 9.55701C4.037 9.72501 3.96 9.92701 3.934 10.144L3.933 10.15C3.898 10.403 3.848 10.628 3.78 10.845L3.788 10.815C3.565 11.481 3.437 12.249 3.437 13.046C3.437 13.304 3.45 13.558 3.477 13.809L3.474 13.778C3.534 14.736 3.823 15.616 4.286 16.378L4.272 16.353C4.469 16.648 4.68 16.905 4.913 17.14C5.081 17.328 5.325 17.446 5.597 17.446C5.749 17.446 5.893 17.409 6.019 17.343L6.014 17.345C6.364 17.219 6.613 16.899 6.631 16.518V16.516C6.679 16.042 6.751 15.618 6.85 15.204L6.837 15.271C6.861 15.208 6.875 15.136 6.875 15.06C6.875 15.045 6.874 15.03 6.873 15.015V15.017C6.865 14.9443 6.90933 14.8757 7.006 14.811V14.859C7.10267 15.085 7.20333 15.3107 7.308 15.536C7.41267 15.7613 7.52133 15.987 7.634 16.213C7.929 16.662 8.242 17.054 8.586 17.415L8.583 17.412C8.928 17.784 9.304 18.118 9.71 18.413L9.732 18.428C9.944 18.59 10.13 18.765 10.298 18.956L10.302 18.96C10.46 19.146 10.649 19.299 10.862 19.414L10.872 19.419V19.395H10.92C10.881 19.308 10.818 19.238 10.74 19.19L10.738 19.189C10.659 19.145 10.591 19.101 10.527 19.053L10.532 19.056C10.3873 18.9113 10.238 18.75 10.084 18.572C9.93 18.394 9.789 18.2247 9.661 18.064C9.32233 17.596 8.99933 17.107 8.692 16.597C8.38467 16.087 8.09433 15.5687 7.821 15.042C7.69167 14.784 7.56667 14.518 7.446 14.244C7.32533 13.97 7.20833 13.704 7.095 13.446C7.046 13.347 7.012 13.233 6.999 13.112V13.107C6.993 12.992 6.927 12.893 6.831 12.842L6.829 12.841C6.708 13.047 6.574 13.225 6.421 13.386L6.422 13.385C6.263 13.552 6.133 13.749 6.04 13.965L6.035 13.978C5.894 14.32 5.791 14.717 5.746 15.132L5.744 15.151C5.696 15.5783 5.64767 16.0177 5.599 16.469L5.551 16.493L5.527 16.517C5.267 16.464 5.053 16.298 4.937 16.074L4.935 16.069C4.81367 15.835 4.705 15.605 4.609 15.379C4.361 14.742 4.207 14.005 4.186 13.235V13.226C4.177 13.104 4.173 12.961 4.173 12.818C4.173 12.152 4.278 11.51 4.472 10.908L4.46 10.952C4.508 10.7747 4.61267 10.476 4.774 10.056C4.93533 9.63601 4.96767 9.34567 4.871 9.18501C4.821 9.02001 4.728 8.88101 4.606 8.77501L4.605 8.77401C4.483 8.66801 4.372 8.55701 4.27 8.43901L4.267 8.43501C4.15433 8.27234 4.04567 8.09901 3.941 7.91501C3.83633 7.73101 3.74367 7.54967 3.663 7.37101C3.498 6.98901 3.329 6.51001 3.189 6.01801L3.167 5.92901C3.008 5.36401 2.831 4.88601 2.621 4.42601L2.647 4.49001C2.536 4.23801 2.407 4.02001 2.257 3.82101L2.263 3.82901C2.10033 3.61167 1.955 3.40601 1.827 3.21201C1.66433 3.00267 1.503 2.80101 1.343 2.60701C1.18 2.41001 1.035 2.18801 0.917 1.95001L0.908 1.93001C0.86 1.83301 0.818 1.72001 0.789 1.60301L0.787 1.59201C0.776 1.55701 0.77 1.51601 0.77 1.47501C0.77 1.39301 0.794 1.31601 0.836 1.25201L0.835 1.25401C0.846 1.19801 0.872 1.14901 0.908 1.10901C0.947 1.07401 0.997 1.04801 1.051 1.03701H1.053C1.138 0.982007 1.241 0.949007 1.353 0.949007C1.437 0.949007 1.518 0.968007 1.589 1.00201L1.586 1.00101C1.805 1.06301 1.982 1.12501 2.155 1.19601L2.119 1.18301C2.425 1.31234 2.70733 1.43734 2.966 1.55801C3.264 1.70001 3.518 1.85001 3.758 2.01701L3.74 2.00501C3.86933 2.08567 3.99833 2.17434 4.127 2.27101C4.25567 2.36767 4.39267 2.46467 4.538 2.56201H4.877C5.135 2.56201 5.409 2.57434 5.699 2.59901C5.992 2.62201 6.263 2.67701 6.521 2.76301L6.497 2.75601C6.978 2.89901 7.391 3.06801 7.783 3.27101L7.742 3.25201C8.13733 3.45334 8.51233 3.66701 8.867 3.89301C9.456 4.26001 9.965 4.63601 10.444 5.04701L10.427 5.03301C10.927 5.46101 11.381 5.90001 11.807 6.36401L11.817 6.37601C12.233 6.83001 12.63 7.32301 12.993 7.84001L13.024 7.88701C13.358 8.35901 13.695 8.90501 13.998 9.47101L14.04 9.55601C14.121 9.71001 14.203 9.89901 14.274 10.092L14.285 10.125C14.3497 10.3103 14.422 10.5003 14.502 10.695C14.6793 11.0983 14.8693 11.5053 15.072 11.916C15.2747 12.3267 15.4647 12.726 15.642 13.114L16.174 14.275C16.361 14.681 16.57 15.031 16.813 15.354L16.802 15.339C17.005 15.556 17.276 15.708 17.58 15.761L17.588 15.762C17.956 15.854 18.266 15.958 18.566 16.081L18.519 16.064C18.662 16.129 18.846 16.198 19.035 16.259L19.075 16.27C19.287 16.335 19.471 16.421 19.64 16.529L19.631 16.524C19.958 16.707 20.235 16.887 20.499 17.083L20.478 17.068C20.752 17.2693 21.026 17.4593 21.3 17.638C21.4293 17.7347 21.6463 17.8757 21.951 18.061C22.2557 18.2463 22.417 18.4197 22.435 18.581C22.321 18.577 22.186 18.574 22.051 18.574C21.559 18.574 21.075 18.606 20.601 18.668L20.657 18.662C20.121 18.734 19.635 18.865 19.178 19.052L19.218 19.038C19.105 19.087 18.97 19.132 18.83 19.167L18.811 19.171C18.669 19.192 18.559 19.306 18.545 19.448C18.606 19.524 18.655 19.613 18.688 19.709L18.69 19.715C18.724 19.817 18.765 19.905 18.815 19.987L18.812 19.981C18.931 20.192 19.059 20.374 19.203 20.542L19.199 20.537C19.34 20.711 19.499 20.862 19.675 20.991L19.682 20.996C19.8447 21.1253 20.014 21.2583 20.19 21.395C20.351 21.521 20.533 21.645 20.722 21.757L20.746 21.77C21.03 21.944 21.36 22.11 21.704 22.249L21.75 22.265C22.124 22.415 22.445 22.589 22.743 22.796L22.727 22.785C22.921 22.8977 23.1143 23.0227 23.307 23.16C23.4997 23.2973 23.685 23.4303 23.863 23.559C23.936 23.631 24 23.711 24.054 23.798L24.057 23.803C24.148 23.907 24.274 23.978 24.417 23.996H24.42V23.948C24.332 23.881 24.267 23.788 24.236 23.681L24.235 23.677C24.21 23.575 24.173 23.486 24.123 23.404L24.125 23.408L24.129 23.412ZM5.553 4.20701C5.42367 4.20701 5.30267 4.21101 5.19 4.21901C5.075 4.22701 4.968 4.24801 4.867 4.28201L4.876 4.27901V4.30301H4.924C4.98867 4.39967 5.07 4.50834 5.168 4.62901C5.266 4.74967 5.35467 4.86667 5.434 4.98001L5.821 5.77801L5.869 5.75401C5.982 5.67201 6.069 5.56201 6.121 5.43301L6.123 5.42801C6.175 5.28901 6.205 5.12701 6.205 4.95901C6.205 4.94101 6.205 4.92301 6.204 4.90501V4.90801C6.159 4.86401 6.122 4.81201 6.096 4.75401L6.095 4.75101L6.014 4.56901C5.961 4.48501 5.887 4.41901 5.8 4.37701L5.797 4.37601C5.703 4.33101 5.623 4.27401 5.553 4.20701Z" fill="black"/>
</svg>
